<svg xmlns="http://www.w3.org/2000/svg" width="145" height="27" viewBox="0 0 145 27" xmlns:xlink="http://www.w3.org/1999/xlink">
  <defs>
    <path id="a" d="M138.662601,0.623972948 C139.073345,0.216543243 139.621814,0 140.179996,0 C140.45718,0 140.736791,0.0533661074 141.002873,0.163519226 C141.805282,0.494320674 142.327732,1.27257641 142.326692,2.13601266 C142.324957,3.31211956 141.364009,4.26586769 140.179996,4.26586769 C139.311327,4.26586769 138.527999,3.74589023 138.195656,2.94881952 C137.863661,2.15106464 138.047525,1.23323601 138.662601,0.623972948 Z M128.577158,4.01203659 C128.58028,4.00998404 132.077506,2.6563322 133.759685,2.65667429 C133.834271,2.65667429 133.905388,2.65941102 133.972689,2.66488446 C135.654868,2.80445736 137.167754,3.3285399 138.744819,4.32812814 L142.842897,7.07237759 L143.093715,3.81943967 C143.107592,3.30664611 143.530131,2.89819014 144.047378,2.89819014 C144.563237,2.89819014 144.98647,3.30664611 145,3.81943967 C145,3.86972697 144.579195,8.71954302 144.579195,8.71954302 C144.579195,9.24362556 144.151799,9.64079255 143.626226,9.66747561 C143.377837,9.67979086 143.092675,9.50600892 143.092675,9.50600892 L139.568389,7.20305613 L136.177319,10.2870014 L138.68966,13.1386672 C138.932152,13.4003664 139.05253,13.7530616 139.018186,14.1078094 C138.983842,14.4622151 138.799631,14.7861747 138.509959,14.9969024 L134.391413,18.3021802 C134.079191,18.6435864 133.603227,18.7879486 133.152241,18.6777955 C132.701948,18.5673003 132.348098,18.2200785 132.231535,17.7729663 C132.115319,17.3265383 132.255125,16.8524009 132.595099,16.5383619 L132.605507,16.5298097 C132.653381,16.4853379 135.82104,13.958658 135.82104,13.958658 L133.514071,11.9827436 L130.866434,15.0205067 L130.835212,15.0564262 L127.31058,19.4488673 C127.044845,19.8381662 126.583451,20.0468414 126.114078,19.9910807 C125.644012,19.9353199 125.245409,19.6243597 125.079585,19.1840893 C124.914454,18.7431348 125.010549,18.248472 125.328321,17.900566 L135.421396,5.14025083 C135.421396,5.14025083 134.413962,4.5227776 133.336798,4.49506827 C133.132467,4.48959483 132.044202,4.82586972 130.997567,5.16180253 C129.955788,5.49636697 128.955292,5.83093141 128.907418,5.82853678 C128.462676,5.80937971 128.090786,5.48644635 128.012037,5.05096523 C127.932594,4.61651038 128.167107,4.18513434 128.577158,4.01203659 Z"/>
  </defs>
  <g fill="none" fill-rule="evenodd">
    <path fill="#333333" d="M0,25.676 C0,26.39 0.578,26.849 1.207,26.849 C1.751,26.849 2.193,26.526 2.38,25.965 L2.839,24.554 L6.97,24.554 L7.446,25.965 C7.633,26.526 8.075,26.849 8.619,26.849 C9.248,26.849 9.826,26.39 9.826,25.676 C9.826,25.506 9.792,25.336 9.741,25.2 L6.664,16.547 C6.341,15.629 5.814,15.085 4.93,15.085 C4.046,15.085 3.536,15.629 3.213,16.547 L0.085,25.2 C0.034,25.336 0,25.506 0,25.676 Z M3.553,22.429 L4.896,18.383 L4.947,18.383 L6.273,22.429 L3.553,22.429 Z M14.492,25.523 C14.492,26.322 15.019,26.849 15.75,26.849 C16.464,26.849 16.991,26.322 16.991,25.523 L16.991,23.67 L18.521,21.749 L20.952,26.118 C21.224,26.594 21.649,26.849 22.142,26.849 C22.839,26.849 23.332,26.305 23.332,25.659 C23.332,25.421 23.264,25.166 23.111,24.894 L20.187,19.845 L22.669,16.989 C22.856,16.768 22.958,16.496 22.958,16.19 C22.958,15.544 22.448,15.085 21.836,15.085 C21.462,15.085 21.105,15.289 20.816,15.629 L16.991,20.287 L16.991,16.411 C16.991,15.612 16.464,15.085 15.75,15.085 C15.019,15.085 14.492,15.612 14.492,16.411 L14.492,25.523 Z M31.585,26.849 C32.316,26.849 32.843,26.322 32.843,25.523 L32.843,17.516 C32.843,17.448 32.877,17.414 32.945,17.414 L34.9,17.414 C35.665,17.414 36.158,16.955 36.158,16.309 C36.158,15.646 35.665,15.187 34.9,15.187 L28.287,15.187 C27.522,15.187 27.029,15.646 27.029,16.309 C27.029,16.955 27.522,17.414 28.287,17.414 L30.242,17.414 C30.31,17.414 30.344,17.448 30.344,17.516 L30.344,25.523 C30.344,26.322 30.871,26.849 31.585,26.849 Z M40.45,25.523 C40.45,26.322 40.977,26.849 41.708,26.849 C42.422,26.849 42.949,26.322 42.949,25.523 L42.949,16.411 C42.949,15.612 42.422,15.085 41.708,15.085 C40.977,15.085 40.45,15.612 40.45,16.411 L40.45,25.523 Z M52.12,26.849 C52.851,26.849 53.327,26.458 53.701,25.387 L56.642,16.785 C56.693,16.615 56.727,16.428 56.727,16.258 C56.727,15.612 56.234,15.085 55.52,15.085 C54.942,15.085 54.517,15.391 54.313,16.054 L52.205,22.939 L52.154,22.939 L49.927,16.054 C49.706,15.391 49.298,15.085 48.72,15.085 C48.006,15.085 47.496,15.612 47.496,16.258 C47.496,16.428 47.53,16.615 47.581,16.785 L50.522,25.387 C50.896,26.458 51.372,26.849 52.12,26.849 Z M59.914,25.676 C59.914,26.39 60.492,26.849 61.121,26.849 C61.665,26.849 62.107,26.526 62.294,25.965 L62.753,24.554 L66.884,24.554 L67.36,25.965 C67.547,26.526 67.989,26.849 68.533,26.849 C69.162,26.849 69.74,26.39 69.74,25.676 C69.74,25.506 69.706,25.336 69.655,25.2 L66.578,16.547 C66.255,15.629 65.728,15.085 64.844,15.085 C63.96,15.085 63.45,15.629 63.127,16.547 L59.999,25.2 C59.948,25.336 59.914,25.506 59.914,25.676 Z M63.467,22.429 L64.81,18.383 L64.861,18.383 L66.187,22.429 L63.467,22.429 Z M76.82,26.849 C77.551,26.849 78.078,26.322 78.078,25.523 L78.078,17.516 C78.078,17.448 78.112,17.414 78.18,17.414 L80.135,17.414 C80.9,17.414 81.393,16.955 81.393,16.309 C81.393,15.646 80.9,15.187 80.135,15.187 L73.522,15.187 C72.757,15.187 72.264,15.646 72.264,16.309 C72.264,16.955 72.757,17.414 73.522,17.414 L75.477,17.414 C75.545,17.414 75.579,17.448 75.579,17.516 L75.579,25.523 C75.579,26.322 76.106,26.849 76.82,26.849 Z M89.51,26.934 C91.533,26.934 93.114,25.999 93.726,24.129 C93.981,23.313 94.049,22.667 94.049,20.967 C94.049,19.267 93.981,18.621 93.726,17.805 C93.114,15.935 91.533,15 89.51,15 C87.487,15 85.906,15.935 85.294,17.805 C85.039,18.621 84.971,19.267 84.971,20.967 C84.971,22.667 85.039,23.313 85.294,24.129 C85.906,25.999 87.487,26.934 89.51,26.934 Z M89.51,24.724 C88.558,24.724 87.946,24.248 87.691,23.466 C87.555,23.041 87.504,22.463 87.504,20.967 C87.504,19.471 87.555,18.893 87.691,18.468 C87.946,17.686 88.558,17.21 89.51,17.21 C90.462,17.21 91.074,17.686 91.329,18.468 C91.465,18.893 91.516,19.471 91.516,20.967 C91.516,22.463 91.465,23.041 91.329,23.466 C91.074,24.248 90.462,24.724 89.51,24.724 Z M106.416,26.849 C107.164,26.849 107.606,26.305 107.606,25.659 C107.606,25.421 107.555,25.183 107.436,24.962 L105.753,21.902 C106.943,21.307 107.657,20.185 107.657,18.774 C107.657,16.666 106.093,15.187 103.713,15.187 L100.041,15.187 C99.361,15.187 98.953,15.629 98.953,16.292 L98.953,25.523 C98.953,26.322 99.48,26.849 100.211,26.849 C100.942,26.849 101.452,26.322 101.452,25.523 L101.452,22.446 C101.452,22.378 101.486,22.344 101.554,22.344 L103.254,22.344 L105.192,26.067 C105.481,26.611 105.906,26.849 106.416,26.849 Z M103.594,20.219 L101.554,20.219 C101.486,20.219 101.452,20.185 101.452,20.117 L101.452,17.448 C101.452,17.38 101.486,17.346 101.554,17.346 L103.594,17.346 C104.546,17.346 105.158,17.907 105.158,18.791 C105.158,19.658 104.546,20.219 103.594,20.219 Z"/>
    <use fill="#333333" xlink:href="#a"/>
  </g>
</svg>
