<?xml version="1.0" encoding="UTF-8"?>
<svg width="292px" height="100px" viewBox="0 0 292 100" version="1.1" xmlns="http://www.w3.org/2000/svg" xmlns:xlink="http://www.w3.org/1999/xlink">
    <!-- Generator: Sketch 43.1 (39012) - http://www.bohemiancoding.com/sketch -->
    <title>Logo 2</title>
    <desc>Created with Sketch.</desc>
    <defs></defs>
    <g id="Sea-Sense" stroke="none" stroke-width="1" fill="none" fill-rule="evenodd">
        <g id="Desktop-HD" transform="translate(-23.000000, -25.000000)">
            <g id="Navigation">
                <g id="Logo-2" transform="translate(22.000000, 21.000000)">
                    <g id="Page-1" transform="translate(1.000000, 4.000000)">
                        <g id="Group-25" transform="translate(0.691226, 0.103500)">
                            <path d="M19.1060561,38.0574986 C24.4329423,24.1464092 39.975048,12.844828 54.7508649,14.7352036 C37.983876,12.1310005 21.6642818,21.8888045 16.0238066,37.8918624 L19.1060561,38.0574986 Z" id="Fill-17" fill="#004266"></path>
                            <path d="M61.6269513,16.4918323 C75.164917,21.9696185 86.1375835,40.4259795 84.3326786,54.9583523 C86.8437482,38.4312707 77.3529663,22.3616047 61.7242111,16.5525459 L61.6269513,16.4918323 Z" id="Fill-19" fill="#004266"></path>
                            <path d="M37.6240149,79.8982831 C23.9681587,74.6114797 15.5513601,60.7328102 17.1328624,46.2139948 L14.3241191,44.8947991 C12.0458835,61.4124494 21.7099644,77.3777823 37.4577892,82.986427 L37.6240149,79.8982831 Z" id="Fill-21" fill="#004266"></path>
                            <path d="M82.452088,62.1577537 C77.0196897,75.4428441 60.2839417,83.4311103 46.0097493,81.9291843 L44.6899642,84.7379275 C60.9647599,86.9271557 76.6789859,77.5306864 82.452088,62.1577537" id="Fill-23" fill="#004266"></path>
                            <polygon id="Fill-1" fill="#FFFFFF" points="73.544393 35.7111812 51.8159787 43.823822 49.644434 50.0018783"></polygon>
                            <polygon id="Fill-2" fill="#FFFFFF" points="63.9079574 74.0112397 55.7110248 52.3335184 49.6166708 50.1106913"></polygon>
                            <polygon id="Fill-3" fill="#FFFFFF" points="25.6081936 64.3745094 47.2275591 56.0797276 49.5081525 50.0838123"></polygon>
                            <polygon id="Fill-4" fill="#FFFFFF" points="35.2446292 26.0750403 43.6673223 47.6177769 49.5359158 49.9749993"></polygon>
                            <polygon id="Fill-5" fill="#FFFFFF" points="62.049648 0.467789854 49.5762343 50.0443189 59.238547 44.268859"></polygon>
                            <polygon id="Fill-6" fill="#FFFFFF" points="99.1470457 62.5163769 55.3389031 59.7294434 49.5705167 50.0429632"></polygon>
                            <polygon id="Fill-7" fill="#FFFFFF" points="49.4592279 50.1079209 39.9248266 55.8197199 37.0972209 99.6178418 49.571224 50.0413127"></polygon>
                            <polygon id="Fill-8" fill="#FFFFFF" points="49.5764701 50.0421379 43.8027786 40.3745203 -5.89452939e-05 37.5687243"></polygon>
                            <polygon id="Fill-9" fill="#004266" points="25.6081936 64.3745094 43.0630741 49.1153411 49.5081525 50.0838123"></polygon>
                            <polygon id="Fill-10" fill="#004266" points="35.2446292 26.0750403 50.5037975 43.5293313 49.5359158 49.9749993"></polygon>
                            <polygon id="Fill-11" fill="#004266" points="73.544393 35.7111812 56.0895125 50.9709389 49.644434 50.0018783"></polygon>
                            <polygon id="Fill-12" fill="#004266" points="63.9079574 74.0112397 48.6487891 56.5563592 49.6166708 50.1106913"></polygon>
                            <polygon id="Fill-13" fill="#0071BC" points="99.1470457 62.5163769 59.2292925 44.2669138 49.5705167 50.0429632"></polygon>
                            <polygon id="Fill-14" fill="#0071BC" points="39.9175174 55.8183052 49.5762933 50.0422558 -0.000235781176 37.5688422"></polygon>
                            <polygon id="Fill-15" fill="#0071BC" points="62.0495301 0.467789854 43.8006565 40.385543 49.5761165 50.0443189"></polygon>
                            <polygon id="Fill-16" fill="#0071BC" points="37.0973387 99.6175471 55.3462123 59.6992044 49.6379501 50.153014 49.5713419 50.041018"></polygon>
                        </g>
                        <g id="Group-56" transform="translate(104.000000, 27.207000)">
                            <path d="M5.5313,24.6383 C3.8433,24.1513 2.4433,23.4653 1.3323,22.5803 L3.0323,18.7733 C5.3663,20.4053 7.9733,21.2213 10.8523,21.2213 C12.3933,21.2213 13.5773,20.9783 14.4053,20.4903 C15.2323,20.0023 15.6463,19.3173 15.6463,18.4333 C15.6463,17.6623 15.2663,17.0563 14.5073,16.6143 C13.7473,16.1723 12.4163,15.7463 10.5123,15.3393 C8.3823,14.9093 6.6873,14.3813 5.4293,13.7583 C4.1713,13.1353 3.2533,12.3753 2.6753,11.4803 C2.0973,10.5843 1.8083,9.4683 1.8083,8.1313 C1.8083,6.6813 2.2103,5.3773 3.0153,4.2213 C3.8203,3.0653 4.9483,2.1633 6.3983,1.5183 C7.8483,0.8713 9.5263,0.5493 11.4303,0.5493 C13.1533,0.5493 14.8073,0.7983 16.3943,1.2973 C17.9813,1.7953 19.2503,2.4763 20.2023,3.3373 L18.5023,7.1453 C16.3713,5.5133 14.0253,4.6973 11.4643,4.6973 C10.1043,4.6973 9.0163,4.9693 8.2003,5.5133 C7.3843,6.0573 6.9763,6.7933 6.9763,7.7233 C6.9763,8.2673 7.1293,8.7203 7.4353,9.0823 C7.7413,9.4463 8.2573,9.7693 8.9823,10.0523 C9.7073,10.3353 10.7393,10.6133 12.0763,10.8853 C15.1813,11.5653 17.4203,12.4493 18.7913,13.5363 C20.1623,14.6243 20.8483,16.1103 20.8483,17.9913 C20.8483,20.2583 19.9643,22.0543 18.1963,23.3803 C16.4283,24.7053 13.9693,25.3683 10.8183,25.3683 C8.9823,25.3683 7.2193,25.1253 5.5313,24.6383" id="Fill-26" fill="#0071BC"></path>
                            <polygon id="Fill-28" fill="#0071BC" points="24.6905 25.0631 24.6905 0.8551 41.3845 0.8551 41.3845 4.9691 29.8585 4.9691 29.8585 10.6811 40.6705 10.6811 40.6705 14.8291 29.8585 14.8291 29.8585 20.9491 41.3845 20.9491 41.3845 25.0631"></polygon>
                            <path d="M51.3463,15.6452 L59.1663,15.6452 L55.2563,6.5672 L51.3463,15.6452 Z M63.2123,25.0632 L60.9003,19.6912 L49.5783,19.6912 L47.2663,25.0632 L41.9283,25.0632 L53.0463,0.8552 L57.3303,0.8552 L68.4483,25.0632 L63.2123,25.0632 Z" id="Fill-30" fill="#0071BC"></path>
                            <path d="M83.2545,24.6383 C81.5665,24.1513 80.1665,23.4653 79.0555,22.5803 L80.7555,18.7733 C83.0895,20.4053 85.6965,21.2213 88.5755,21.2213 C90.1165,21.2213 91.3005,20.9783 92.1285,20.4903 C92.9555,20.0023 93.3695,19.3173 93.3695,18.4333 C93.3695,17.6623 92.9895,17.0563 92.2305,16.6143 C91.4705,16.1723 90.1395,15.7463 88.2355,15.3393 C86.1055,14.9093 84.4105,14.3813 83.1525,13.7583 C81.8945,13.1353 80.9765,12.3753 80.3985,11.4803 C79.8205,10.5843 79.5315,9.4683 79.5315,8.1313 C79.5315,6.6813 79.9335,5.3773 80.7385,4.2213 C81.5435,3.0653 82.6715,2.1633 84.1215,1.5183 C85.5715,0.8713 87.2495,0.5493 89.1535,0.5493 C90.8765,0.5493 92.5305,0.7983 94.1175,1.2973 C95.7045,1.7953 96.9735,2.4763 97.9255,3.3373 L96.2255,7.1453 C94.0945,5.5133 91.7485,4.6973 89.1875,4.6973 C87.8275,4.6973 86.7395,4.9693 85.9235,5.5133 C85.1075,6.0573 84.6995,6.7933 84.6995,7.7233 C84.6995,8.2673 84.8525,8.7203 85.1585,9.0823 C85.4645,9.4463 85.9805,9.7693 86.7055,10.0523 C87.4305,10.3353 88.4625,10.6133 89.7995,10.8853 C92.9045,11.5653 95.1435,12.4493 96.5145,13.5363 C97.8855,14.6243 98.5715,16.1103 98.5715,17.9913 C98.5715,20.2583 97.6875,22.0543 95.9195,23.3803 C94.1515,24.7053 91.6925,25.3683 88.5415,25.3683 C86.7055,25.3683 84.9425,25.1253 83.2545,24.6383" id="Fill-32" fill="#0071BC"></path>
                            <polygon id="Fill-34" fill="#0071BC" points="102.4137 25.0631 102.4137 0.8551 119.1077 0.8551 119.1077 4.9691 107.5817 4.9691 107.5817 10.6811 118.3937 10.6811 118.3937 14.8291 107.5817 14.8291 107.5817 20.9491 119.1077 20.9491 119.1077 25.0631"></polygon>
                            <polygon id="Fill-36" fill="#0071BC" points="138.7599 0.8551 143.7579 0.8551 143.7579 25.0631 139.8139 25.0631 127.7439 9.6271 127.7439 25.0631 122.7799 25.0631 122.7799 0.8551 126.6899 0.8551 138.7599 16.2571"></polygon>
                            <path d="M151.7984,24.6383 C150.1104,24.1513 148.7104,23.4653 147.5994,22.5803 L149.2994,18.7733 C151.6334,20.4053 154.2404,21.2213 157.1194,21.2213 C158.6604,21.2213 159.8444,20.9783 160.6724,20.4903 C161.4994,20.0023 161.9134,19.3173 161.9134,18.4333 C161.9134,17.6623 161.5334,17.0563 160.7754,16.6143 C160.0144,16.1723 158.6834,15.7463 156.7794,15.3393 C154.6494,14.9093 152.9544,14.3813 151.6964,13.7583 C150.4384,13.1353 149.5204,12.3753 148.9424,11.4803 C148.3644,10.5843 148.0754,9.4683 148.0754,8.1313 C148.0754,6.6813 148.4774,5.3773 149.2824,4.2213 C150.0874,3.0653 151.2154,2.1633 152.6654,1.5183 C154.1154,0.8713 155.7934,0.5493 157.6974,0.5493 C159.4204,0.5493 161.0744,0.7983 162.6614,1.2973 C164.2474,1.7953 165.5174,2.4763 166.4694,3.3373 L164.7704,7.1453 C162.6394,5.5133 160.2924,4.6973 157.7314,4.6973 C156.3714,4.6973 155.2834,4.9693 154.4674,5.5133 C153.6514,6.0573 153.2434,6.7933 153.2434,7.7233 C153.2434,8.2673 153.3964,8.7203 153.7024,9.0823 C154.0084,9.4463 154.5244,9.7693 155.2494,10.0523 C155.9744,10.3353 157.0064,10.6133 158.3434,10.8853 C161.4484,11.5653 163.6874,12.4493 165.0584,13.5363 C166.4304,14.6243 167.1154,16.1103 167.1154,17.9913 C167.1154,20.2583 166.2324,22.0543 164.4634,23.3803 C162.6954,24.7053 160.2364,25.3683 157.0854,25.3683 C155.2494,25.3683 153.4864,25.1253 151.7984,24.6383" id="Fill-38" fill="#0071BC"></path>
                            <polygon id="Fill-40" fill="#0071BC" points="170.9576 25.0631 170.9576 0.8551 187.6516 0.8551 187.6516 4.9691 176.1256 4.9691 176.1256 10.6811 186.9366 10.6811 186.9366 14.8291 176.1256 14.8291 176.1256 20.9491 187.6516 20.9491 187.6516 25.0631"></polygon>
                            <path d="M3.1861,42.5231 C2.4411,42.0841 1.8681,41.4511 1.4681,40.6261 C1.0681,39.8001 0.8691,38.8281 0.8691,37.7081 C0.8691,36.5881 1.0681,35.6211 1.4681,34.8051 C1.8681,33.9911 2.4411,33.3631 3.1861,32.9231 C3.9311,32.4831 4.8081,32.2631 5.8181,32.2631 C6.5591,32.2631 7.2361,32.3761 7.8511,32.6001 C8.4661,32.8261 8.9981,33.1631 9.4481,33.6131 L8.9831,34.5581 C8.4741,34.1181 7.9711,33.8031 7.4761,33.6131 C6.9811,33.4231 6.4341,33.3281 5.8331,33.3281 C4.6641,33.3281 3.7561,33.7091 3.1111,34.4681 C2.4661,35.2281 2.1441,36.3081 2.1441,37.7081 C2.1441,39.1181 2.4631,40.2061 3.1031,40.9701 C3.7431,41.7361 4.6531,42.1181 5.8331,42.1181 C6.4341,42.1181 6.9811,42.0231 7.4761,41.8331 C7.9711,41.6431 8.4741,41.3291 8.9831,40.8881 L9.4481,41.8331 C8.9981,42.2831 8.4661,42.6211 7.8511,42.8451 C7.2361,43.0711 6.5591,43.1831 5.8181,43.1831 C4.8081,43.1831 3.9311,42.9631 3.1861,42.5231" id="Fill-42" fill="#004266"></path>
                            <polygon id="Fill-44" fill="#004266" points="19.1383 32.3835 20.3683 32.3835 20.3683 43.0635 19.1383 43.0635 19.1383 38.1575 12.7333 38.1575 12.7333 43.0635 11.5183 43.0635 11.5183 32.3835 12.7333 32.3835 12.7333 37.1225 19.1383 37.1225"></polygon>
                            <path d="M24.8531,39.2985 L29.5631,39.2985 L27.2081,33.8085 L24.8531,39.2985 Z M31.1681,43.0635 L29.9981,40.3185 L24.4181,40.3185 L23.2331,43.0635 L21.9581,43.0635 L26.6531,32.3835 L27.7331,32.3835 L32.4281,43.0635 L31.1681,43.0635 Z" id="Fill-46" fill="#004266"></path>
                            <path d="M38.1578,37.3786 C39.7978,37.3786 40.6178,36.7086 40.6178,35.3676 C40.6178,34.7076 40.4178,34.2156 40.0178,33.8906 C39.6178,33.5656 38.9978,33.4026 38.1578,33.4026 L35.2328,33.4026 L35.2328,37.3786 L38.1578,37.3786 Z M42.4028,43.0636 L41.0978,43.0636 L39.7778,39.5086 C39.6178,39.0676 39.3948,38.7736 39.1108,38.6226 C38.8248,38.4736 38.4228,38.3986 37.9028,38.3986 L35.2328,38.3986 L35.2328,43.0636 L34.0178,43.0636 L34.0178,32.3836 L38.2628,32.3836 C39.4128,32.3836 40.2958,32.6386 40.9098,33.1486 C41.5258,33.6576 41.8328,34.3936 41.8328,35.3536 C41.8328,36.0536 41.6508,36.6416 41.2848,37.1156 C40.9198,37.5906 40.3928,37.9286 39.7028,38.1286 C40.0128,38.1786 40.2778,38.3116 40.4978,38.5256 C40.7178,38.7406 40.9028,39.0486 41.0528,39.4476 L42.4028,43.0636 Z" id="Fill-48" fill="#004266"></path>
                            <polygon id="Fill-50" fill="#004266" points="46.693 43.0631 46.693 33.4331 42.973 33.4331 42.973 32.3831 51.658 32.3831 51.658 33.4331 47.938 33.4331 47.938 43.0631"></polygon>
                            <polygon id="Fill-52" fill="#004266" points="53.1578 43.0631 53.1578 32.3831 59.9078 32.3831 59.9078 33.4031 54.3728 33.4031 54.3728 37.1231 59.6078 37.1231 59.6078 38.1581 54.3728 38.1581 54.3728 42.0431 59.9078 42.0431 59.9078 43.0631"></polygon>
                            <path d="M66.1178,37.3786 C67.7578,37.3786 68.5778,36.7086 68.5778,35.3676 C68.5778,34.7076 68.3778,34.2156 67.9778,33.8906 C67.5778,33.5656 66.9578,33.4026 66.1178,33.4026 L63.1928,33.4026 L63.1928,37.3786 L66.1178,37.3786 Z M70.3628,43.0636 L69.0578,43.0636 L67.7378,39.5086 C67.5778,39.0676 67.3548,38.7736 67.0708,38.6226 C66.7848,38.4736 66.3828,38.3986 65.8628,38.3986 L63.1928,38.3986 L63.1928,43.0636 L61.9778,43.0636 L61.9778,32.3836 L66.2228,32.3836 C67.3728,32.3836 68.2558,32.6386 68.8698,33.1486 C69.4858,33.6576 69.7928,34.3936 69.7928,35.3536 C69.7928,36.0536 69.6108,36.6416 69.2448,37.1156 C68.8798,37.5906 68.3528,37.9286 67.6628,38.1286 C67.9728,38.1786 68.2378,38.3116 68.4578,38.5256 C68.6778,38.7406 68.8628,39.0486 69.0128,39.4476 L70.3628,43.0636 Z" id="Fill-54" fill="#004266"></path>
                        </g>
                    </g>
                </g>
            </g>
        </g>
    </g>
</svg>